# Blender 3.6.1
# www.blender.org
o rat
v -0.079100 0.459667 0.192521
v -0.000000 0.731246 0.211028
v 0.079100 0.459667 0.192521
v -0.144732 0.306534 0.025352
v -0.109355 0.388021 0.001262
v -0.173688 0.391144 0.006427
v -0.135761 0.303884 0.014640
v -0.157201 0.301753 0.021216
v -0.100833 0.544561 0.375307
v -0.082593 0.491544 0.370776
v -0.147372 0.476464 0.439790
v -0.059445 0.515823 0.400073
v -0.075342 0.468060 0.326138
v -0.000000 0.481469 0.391111
v -0.004083 -1.370949 0.056134
v -0.000010 -1.837943 0.059618
v 0.000000 -1.370435 0.072483
v -0.221612 -0.208678 0.116329
v -0.175379 -0.226873 0.027649
v -0.186594 -0.249910 0.016418
v 0.144732 0.306534 0.025352
v 0.109355 0.388021 0.001262
v 0.135762 0.303884 0.014640
v 0.100833 0.544561 0.375307
v 0.147371 0.476464 0.439790
v 0.082593 0.491544 0.370776
v 0.059445 0.515823 0.400073
v 0.075342 0.468060 0.326138
v 0.004083 -1.370949 0.056134
v 0.000000 -1.837943 0.059618
v 0.186594 -0.249910 0.016418
v 0.175379 -0.226873 0.027649
v 0.221612 -0.208678 0.116329
v -0.188806 -0.135510 0.397592
v -0.121920 -0.220911 0.103753
v -0.049532 -0.459618 0.145356
v 0.000000 -0.225284 0.477632
v 0.000000 -0.483570 0.222235
v 0.000000 -0.077193 0.500000
v -0.172975 0.207466 0.183277
v -0.170078 0.347145 0.156423
v -0.211834 -0.126283 0.194953
v -0.143545 -0.068249 0.121554
v -0.111467 0.234672 0.129742
v -0.111467 0.234672 0.129742
v -0.048619 0.779584 0.291629
v -0.000000 0.807023 0.297409
v -0.000000 0.514211 0.406497
v -0.201448 -0.042388 0.007033
v -0.138394 -0.043110 0.000000
v -0.158905 -0.247475 0.018312
v -0.005690 -1.068198 0.050327
v 0.000000 -1.067645 0.069684
v -0.006823 -0.696933 0.062336
v 0.000000 -0.697792 0.093750
v -0.148322 0.270191 0.051909
v -0.172855 0.255135 0.059448
v -0.148612 0.234245 0.046485
v -0.222471 -0.144665 0.096935
v 0.173688 0.391144 0.006427
v 0.157201 0.301753 0.021216
v 0.048619 0.779584 0.291629
v 0.201448 -0.042388 0.007033
v 0.138394 -0.043110 0.000000
v 0.158905 -0.247475 0.018312
v 0.005690 -1.068198 0.050327
v 0.006823 -0.697341 0.062799
v 0.049532 -0.459618 0.145356
v 0.148322 0.270191 0.051909
v 0.172855 0.255135 0.059448
v 0.148612 0.234245 0.046485
v 0.172974 0.207466 0.183277
v 0.170078 0.347145 0.156423
v 0.111467 0.234672 0.129742
v 0.222471 -0.144665 0.096935
v 0.211834 -0.126283 0.194953
v 0.143545 -0.068249 0.121554
v 0.121920 -0.220911 0.103753
v 0.188806 -0.135510 0.397592
vn 0.0153 0.2193 -0.9755
vn -0.0000 0.0680 -0.9977
vn 0.7680 0.2475 -0.5907
vn 0.2922 0.2281 0.9288
vn 0.4566 0.0641 0.8874
vn 0.0894 0.2465 0.9650
vn 0.9530 -0.2921 0.0803
vn 0.4565 0.0641 0.8874
vn -0.9984 0.0118 0.0557
vn -0.3448 0.0910 0.9343
vn -0.7271 0.3739 0.5758
vn -0.3727 -0.9266 0.0502
vn -0.3482 -0.6573 0.6684
vn 0.1335 -0.3353 0.9326
vn -0.7271 0.3740 0.5758
vn -0.8361 -0.1547 0.5264
vn -0.4807 -0.2829 0.8300
vn -0.8361 -0.1547 0.5263
vn -0.9674 -0.0027 0.2532
vn -0.9701 -0.0067 0.2425
vn -0.7470 -0.6059 0.2736
vn 0.0892 0.6847 0.7233
vn -0.6552 -0.5059 0.5610
vn -0.2922 0.2281 0.9288
vn -0.7442 -0.1294 0.6553
vn -0.9530 -0.2921 0.0803
vn 0.7271 0.3739 0.5758
vn 0.3482 -0.6573 0.6684
vn 0.3727 -0.9266 0.0502
vn -0.1335 -0.3353 0.9326
vn 0.7271 0.3740 0.5758
vn 0.8361 -0.1546 0.5264
vn 0.4807 -0.2829 0.8300
vn 0.8361 -0.1547 0.5263
vn 0.9674 -0.0028 0.2532
vn 0.9701 -0.0067 0.2425
vn 0.4223 -0.7551 0.5015
vn -0.0892 0.6847 0.7233
vn 0.7514 -0.5985 0.2779
vn -0.8408 -0.2770 0.4651
vn -0.9432 -0.3078 -0.1252
vn -0.8664 -0.4153 0.2774
vn -0.5579 -0.3832 0.7362
vn -0.8663 -0.4153 0.2774
vn -0.7675 -0.4418 0.4646
vn -0.5082 0.0234 0.8609
vn -0.8408 -0.2771 0.4650
vn -0.8361 -0.1546 0.5263
vn -0.8408 -0.2770 0.4650
vn -0.4808 -0.2829 0.8300
vn -0.9550 -0.2655 -0.1320
vn -0.8779 0.3866 -0.2825
vn -0.9010 0.2690 -0.3404
vn -0.8779 0.3865 -0.2825
vn -0.9917 -0.0992 0.0817
vn -0.9550 -0.2655 -0.1321
vn -0.7434 0.3488 -0.5707
vn -0.7202 -0.4133 -0.5572
vn -0.6891 0.7201 -0.0811
vn -0.6964 -0.6088 -0.3799
vn -0.8482 -0.0631 -0.5260
vn -0.8292 -0.0922 -0.5513
vn -0.6330 -0.7170 -0.2918
vn -0.2059 -0.9650 -0.1622
vn -0.8070 -0.0086 -0.5905
vn -0.7823 0.3719 -0.4997
vn -0.8013 0.2545 -0.5414
vn -0.0023 -0.9793 -0.2022
vn -0.7500 0.2599 -0.6083
vn -0.8288 0.5256 -0.1920
vn -0.5662 0.5102 -0.6475
vn -0.8288 0.5256 -0.1919
vn -0.4081 0.7080 0.5764
vn -0.5661 0.5102 -0.6475
vn -0.2215 0.1016 0.9699
vn 0.1334 -0.3353 0.9326
vn -0.2215 0.1016 0.9698
vn -0.4080 0.7080 0.5764
vn 0.0891 0.6848 0.7233
vn -0.0857 0.0987 0.9914
vn -0.6553 -0.5058 0.5610
vn 0.2265 0.0650 0.9718
vn 0.0891 0.6847 0.7233
vn 0.7986 -0.1699 0.5774
vn -0.9009 0.2691 -0.3404
vn -0.7270 0.3740 0.5758
vn -0.8288 0.5255 -0.1919
vn -0.9010 0.2691 -0.3404
vn -0.7271 0.3740 0.5757
vn -0.9678 -0.0060 0.2516
vn -0.9362 -0.1425 0.3214
vn 0.3631 0.7990 0.4793
vn -0.9892 -0.0826 -0.1210
vn 0.1958 -0.6966 -0.6902
vn 0.9530 -0.2921 0.0802
vn 0.1958 -0.6965 -0.6903
vn 0.1958 -0.6966 -0.6903
vn -0.9550 -0.2656 -0.1320
vn 0.1959 -0.6966 -0.6903
vn 0.3630 0.7990 0.4793
vn 0.3631 0.7990 0.4794
vn -0.7202 -0.4134 -0.5571
vn -0.5936 0.5324 -0.6035
vn 0.0892 0.6847 0.7234
vn -0.9917 -0.0991 0.0817
vn -0.0022 -0.9793 -0.2022
vn 0.7986 -0.1700 0.5774
vn 0.7985 -0.1699 0.5774
vn -0.0022 -0.9793 -0.2023
vn -0.8664 -0.4153 0.2775
vn 0.1312 0.1734 0.9761
vn -0.0894 0.2465 0.9650
vn 0.9984 0.0118 0.0557
vn 0.7500 0.2599 -0.6083
vn 0.5662 0.5102 -0.6475
vn 0.8288 0.5256 -0.1920
vn 0.8288 0.5256 -0.1919
vn 0.5661 0.5102 -0.6475
vn 0.4081 0.7080 0.5764
vn 0.2215 0.1016 0.9699
vn -0.1334 -0.3353 0.9326
vn 0.2215 0.1016 0.9698
vn 0.4080 0.7080 0.5764
vn 0.4222 -0.7551 0.5015
vn 0.0857 0.0987 0.9914
vn -0.0891 0.6848 0.7233
vn -0.2265 0.0650 0.9718
vn -0.8473 -0.1797 0.4998
vn -0.0891 0.6847 0.7233
vn 0.8288 0.5255 -0.1919
vn 0.7270 0.3740 0.5758
vn 0.7271 0.3740 0.5757
vn 0.9675 -0.0061 0.2527
vn 0.9674 -0.0027 0.2532
vn 0.9864 0.0251 -0.1624
vn 0.9354 -0.1428 0.3235
vn 0.8479 -0.3512 -0.3970
vn 0.9354 -0.1428 0.3236
vn 0.9864 0.0251 -0.1625
vn 0.7668 -0.4418 0.4656
vn 0.8479 -0.3513 -0.3970
vn -0.3631 0.7990 0.4793
vn 0.9892 -0.0826 -0.1210
vn -0.1958 -0.6966 -0.6902
vn -0.9530 -0.2921 0.0802
vn 0.9984 0.0118 0.0556
vn -0.1958 -0.6965 -0.6903
vn 0.9550 -0.2655 -0.1320
vn -0.1958 -0.6966 -0.6903
vn 0.9550 -0.2656 -0.1320
vn 0.5992 0.5599 -0.5722
vn 0.5993 0.5600 -0.5721
vn -0.3630 0.7990 0.4793
vn -0.0889 -0.1076 -0.9902
vn -0.1959 -0.6966 -0.6903
vn -0.0889 -0.1077 -0.9902
vn -0.3631 0.7990 0.4794
vn 0.5993 0.5600 -0.5720
vn 0.7514 -0.5984 0.2779
vn -0.0879 0.6805 0.7275
vn 0.5936 0.5324 -0.6035
vn 0.9910 -0.1025 0.0858
vn 0.3183 0.2541 -0.9133
vn 0.2482 -0.7738 -0.5829
vn 0.2481 -0.7738 -0.5829
vn 0.2480 -0.7738 -0.5829
vn 0.2481 -0.7738 -0.5828
vn -0.8472 -0.1797 0.4999
vn 0.2480 -0.7739 -0.5828
vn 0.3183 0.2542 -0.9133
vn 0.2480 -0.7738 -0.5828
vn 0.8479 -0.3514 -0.3970
vn 0.5579 -0.3832 0.7362
vn 0.8408 -0.2770 0.4651
vn 0.8408 -0.2770 0.4650
vn 0.2481 -0.7737 -0.5829
vn 0.9917 -0.0992 0.0817
vn 0.9550 -0.2655 -0.1321
vn 0.5082 0.0234 0.8609
vn 0.8408 -0.2771 0.4650
vn 0.8361 -0.1546 0.5263
vn 0.4808 -0.2829 0.8300
vn 0.0296 0.0467 -0.9985
vn -0.0000 -0.0283 -0.9996
vn 0.3182 0.2542 -0.9133
vn 0.0026 0.0813 -0.9967
vn -0.0570 0.2792 -0.9585
vn -0.2199 -0.0012 -0.9755
vn -0.1025 0.1589 -0.9820
vn -0.0598 0.2385 -0.9693
vn 0.5037 0.6169 -0.6047
vn -0.2192 -0.0427 -0.9747
vn 0.0182 0.0531 -0.9984
vn -0.0406 0.1023 -0.9939
vn 0.5594 0.4922 -0.6670
vn 0.0051 0.3291 -0.9443
vn 0.8479 -0.3514 -0.3971
vn 0.9864 0.0250 -0.1625
vn 0.0050 0.3291 -0.9443
vn -0.1784 -0.9319 0.3158
vn -0.2914 -0.9556 -0.0436
vn 0.1080 -0.1946 -0.9749
vn -0.0873 -0.1783 -0.9801
vn 0.2199 -0.4386 -0.8713
vn 0.7603 -0.5290 -0.3769
vn 0.1784 -0.9319 0.3158
vn 0.2870 -0.0619 -0.9559
vn 0.2914 -0.9556 -0.0436
vn 0.2882 -0.2771 -0.9166
vn -0.7603 -0.5290 -0.3769
vn 0.0873 -0.1783 -0.9801
vn -0.1600 -0.2336 -0.9591
vn 0.1131 0.1214 -0.9861
vn 0.4908 -0.3802 -0.7839
vn -0.2304 0.0772 -0.9700
vn -0.1742 -0.5739 -0.8002
vn -0.1441 -0.5358 -0.8319
vn -0.5731 -0.0841 -0.8152
vn -0.6406 -0.6598 -0.3928
vn 0.2076 -0.8097 -0.5488
vn 0.1600 -0.2335 -0.9591
vn -0.4177 -0.3560 -0.8360
vn -0.6293 -0.3726 -0.6820
vn -0.0000 -0.0075 -1.0000
vn 0.0035 -0.0187 -0.9998
vn -0.0000 -0.0192 -0.9998
vn -0.0092 -0.0254 -0.9996
vn -0.0112 -0.0228 -0.9997
vn -0.0050 -0.0086 -1.0000
vn -0.0072 -0.0275 -0.9996
vn 0.0083 -0.0279 -0.9996
vn 0.0082 0.0249 -0.9997
vn -0.0405 -0.0996 -0.9942
vn -0.0086 0.0239 -0.9997
vn 0.0244 0.0395 -0.9989
vn 0.0076 -0.1018 -0.9948
vn -0.0625 0.9831 -0.1723
vt 0.956512 0.505905
vt 0.596237 0.600433
vt 0.965912 0.618431
vt 0.396812 0.869675
vt 0.496227 0.918265
vt 0.510412 0.819209
vt 0.390350 0.847534
vt 0.000793 0.516968
vt 0.025245 0.455581
vt 0.126953 0.530685
vt 0.006310 0.111343
vt 0.073392 0.162449
vt 0.016556 0.041252
vt 0.002106 0.168762
vt 0.004562 0.074631
vt 0.835342 0.932526
vt 0.822121 0.854820
vt 0.881851 0.873566
vt 0.986717 0.990097
vt 0.980322 0.510777
vt 0.943405 0.989532
vt 0.128693 0.750412
vt 0.208065 0.674477
vt 0.246613 0.698837
vt 0.806854 0.808060
vt 0.917267 0.773720
vt 0.846481 0.767242
vt 0.444372 0.887050
vt 0.138733 0.128464
vt 0.974991 0.989929
vt 0.272699 0.686720
vt 0.374649 0.421126
vt 0.239464 0.229950
vt 0.028286 0.244408
vt 0.278595 0.594025
vt 0.007019 0.379974
vt 0.422211 0.613487
vt 0.948097 0.387184
vt 0.960068 0.484726
vt 0.708954 0.194061
vt 0.848663 0.201935
vt 0.976540 0.264481
vt 0.361301 0.242916
vt 0.408958 0.086132
vt 0.709099 0.096741
vt 0.706474 0.002708
vt 0.820923 0.093638
vt 0.960236 0.040909
vt 0.961212 0.562168
vt 0.544422 0.706561
vt 0.493279 0.717567
vt 0.804443 0.922256
vt 0.309486 0.654007
vt 0.480499 0.616608
vt 0.284348 0.631683
vt 0.480850 0.687744
vt 0.287811 0.678574
vt 0.923141 0.937042
vt 0.623556 0.984065
vt 0.923725 0.980350
vt 0.623053 0.937345
vt 0.255217 0.989208
vt 0.257202 0.911591
vt 0.378677 0.884979
vt 0.357994 0.837112
vt 0.387680 0.874458
vt 0.330940 0.851128
vt 0.318382 0.892296
vt 0.378632 0.905182
vt 0.221359 0.835937
vt 0.225433 0.900391
vt 0.300735 0.734589
vt 0.918076 0.096893
vt 0.875946 0.072159
vt 0.884308 0.066849
vt 0.898941 0.137352
vt 0.986938 0.151527
vt 0.996765 0.051514
vt 0.078857 0.710297
vt 0.041206 0.761032
vt 0.176407 0.803078
vt 0.284767 0.733101
vt 0.027481 0.658966
vt 0.123945 0.552602
vt 0.264229 0.659866
vt 0.019714 0.956827
vt 0.049590 0.846619
vt 0.255383 0.980064
vt 0.623456 0.969154
vt 0.923576 0.968620
vt 0.255714 0.961777
vt 0.024994 0.914478
vt 0.265690 0.715969
vt 0.248749 0.662262
vt 0.414047 0.168274
vt 0.403870 0.003990
vt 0.281479 0.002426
vt 0.267846 0.123006
vt 0.026657 0.030167
vt 0.028519 0.002197
vt 0.962708 0.009781
vt 0.957764 0.072037
vt 0.014435 0.999176
vt 0.000000 0.000000
s 0
f 1/1/1 2/2/2 3/3/3
f 4/4/4 5/5/5 6/6/6
f 4/4/4 7/4/7 5/5/8
f 8/7/9 4/4/4 6/6/10
f 9/8/11 10/9/12 11/10/13
f 12/11/14 11/12/13 10/13/12
f 12/11/14 9/14/15 11/12/13
f 13/15/16 12/11/14 10/13/12
f 14/16/17 12/17/14 13/18/18
f 15/19/19 16/20/20 17/21/19
f 18/22/21 19/23/22 20/24/23
f 9/25/15 13/26/18 10/27/12
f 21/4/24 22/5/25 23/28/26
f 24/8/27 25/10/28 26/9/29
f 27/11/30 26/13/29 25/29/28
f 27/11/30 25/29/28 24/14/31
f 28/15/32 26/13/29 27/11/30
f 27/17/30 14/16/33 28/18/34
f 29/30/35 17/21/35 30/20/36
f 31/31/37 32/23/38 33/22/39
f 28/26/34 24/25/31 26/27/29
f 34/32/40 35/33/41 36/34/42
f 34/32/40 36/34/42 37/35/43
f 37/35/43 36/34/44 38/36/45
f 39/37/46 34/32/47 37/35/43
f 39/37/46 13/38/48 34/32/49
f 14/39/50 13/38/18 39/37/46
f 40/40/51 34/32/40 13/38/48
f 40/40/51 13/38/48 41/41/52
f 1/42/53 41/41/54 13/38/48
f 42/43/55 34/32/49 40/40/56
f 40/40/51 43/44/57 42/43/55
f 44/45/58 43/44/57 40/40/56
f 43/44/59 44/45/60 45/46/61
f 45/46/62 44/45/63 41/47/64
f 45/46/65 41/47/66 1/48/67
f 34/32/49 42/43/55 35/33/68
f 1/49/69 46/50/70 2/2/71
f 46/50/72 47/51/73 2/2/74
f 48/52/75 12/17/76 14/16/17
f 48/52/77 9/25/15 12/17/14
f 47/51/78 9/25/15 48/52/75
f 46/50/72 9/25/15 47/51/78
f 19/53/79 49/54/80 20/55/81
f 50/56/82 49/54/80 19/53/22
f 50/56/82 19/53/83 51/57/84
f 1/49/85 9/25/86 46/50/87
f 1/49/88 13/26/18 9/25/89
f 17/58/19 52/59/90 15/60/19
f 53/61/90 52/59/90 17/58/19
f 52/59/90 53/61/90 54/62/91
f 54/62/91 53/61/90 55/63/91
f 8/64/9 56/65/92 4/66/4
f 57/67/93 56/65/92 8/64/9
f 58/68/94 8/64/9 7/69/95
f 58/68/96 57/67/93 8/64/9
f 40/70/51 57/67/93 58/68/97
f 44/71/58 40/70/98 58/68/99
f 40/70/98 41/72/52 57/67/93
f 57/67/93 41/72/54 56/65/100
f 56/73/92 7/74/95 4/75/4
f 58/76/94 7/74/7 56/73/100
f 56/73/101 44/77/58 58/76/94
f 41/78/52 44/77/102 56/73/92
f 59/79/103 19/23/104 18/22/21
f 42/80/55 59/79/103 18/22/21
f 42/80/105 18/22/21 35/81/106
f 18/22/21 20/24/23 35/81/68
f 35/81/68 20/24/23 51/82/107
f 43/83/57 59/79/103 42/80/55
f 19/23/22 35/84/106 51/85/108
f 59/79/103 35/84/109 19/23/22
f 43/83/57 35/84/109 59/79/103
f 36/86/110 55/63/91 38/87/45
f 54/88/91 55/63/91 36/86/110
f 21/4/24 60/6/111 22/5/112
f 61/7/113 60/6/111 21/4/24
f 3/3/114 2/2/115 62/50/116
f 62/50/117 2/2/118 47/51/119
f 48/52/120 14/16/33 27/17/121
f 48/52/122 27/17/30 24/25/31
f 47/51/123 48/52/120 24/25/31
f 62/50/117 47/51/123 24/25/31
f 31/55/124 63/54/125 32/53/126
f 32/53/38 63/54/125 64/56/127
f 64/56/127 65/57/128 32/53/129
f 3/3/3 62/50/130 24/25/131
f 3/3/3 24/25/132 28/26/34
f 66/89/133 17/58/134 29/90/134
f 53/61/133 17/58/134 66/89/133
f 67/91/135 53/61/133 66/89/133
f 55/63/136 53/61/133 67/91/135
f 68/92/137 55/63/138 67/91/139
f 38/87/140 55/63/136 68/92/141
f 69/65/142 61/64/113 21/66/24
f 70/67/143 61/64/113 69/65/142
f 71/68/144 23/69/145 61/64/146
f 71/68/147 61/64/113 70/67/143
f 72/70/148 71/68/149 70/67/143
f 72/70/150 70/67/143 73/72/151
f 73/72/152 70/67/143 69/65/153
f 74/71/154 71/68/155 72/70/150
f 21/75/24 23/74/145 69/73/142
f 69/73/153 23/74/26 71/76/144
f 74/77/156 69/73/157 71/76/144
f 73/78/158 69/73/142 74/77/156
f 33/22/159 32/23/160 75/79/161
f 76/80/162 33/22/39 75/79/161
f 77/83/163 76/80/162 75/79/161
f 76/80/162 78/84/164 33/22/39
f 78/84/165 31/93/124 33/22/159
f 78/84/166 65/94/128 31/31/124
f 78/84/167 32/23/38 65/94/168
f 75/79/161 32/23/38 78/84/169
f 77/83/170 75/79/161 78/84/171
f 38/36/140 68/34/172 37/35/173
f 37/35/173 68/34/141 79/32/174
f 79/32/174 68/34/141 78/33/167
f 79/32/175 78/33/176 76/43/177
f 72/40/178 79/32/175 76/43/177
f 77/95/170 72/40/148 76/43/177
f 39/37/179 37/35/173 79/32/180
f 28/38/181 39/37/179 79/32/175
f 28/38/34 79/32/174 72/40/148
f 72/40/148 73/41/152 28/38/181
f 3/42/3 28/38/181 73/41/152
f 14/39/182 39/37/179 28/38/34
f 74/45/154 72/40/178 77/95/170
f 43/96/183 74/45/154 77/95/170
f 77/95/170 35/97/184 43/96/183
f 78/98/165 35/97/184 77/95/185
f 68/99/141 35/97/184 78/98/165
f 36/100/186 35/97/184 68/99/141
f 45/46/187 74/45/188 43/96/189
f 45/46/190 73/47/191 74/45/192
f 45/46/193 1/101/194 73/47/195
f 73/47/152 1/101/1 3/102/3
f 54/62/196 36/103/186 68/92/197
f 67/91/198 54/62/199 68/92/172
f 7/69/200 8/64/201 5/5/202
f 6/6/203 5/5/204 8/7/205
f 23/69/206 22/5/207 61/64/208
f 60/6/209 61/7/210 22/5/211
f 64/56/212 63/54/213 65/57/214
f 63/54/215 31/31/216 65/57/217
f 49/54/218 51/82/219 20/24/220
f 50/56/221 51/57/222 49/54/223
f 30/20/224 15/104/224 29/30/225
f 15/104/226 52/59/227 29/30/228
f 29/30/229 52/59/230 66/89/231
f 52/59/232 54/62/233 66/89/234
f 66/89/235 54/62/236 67/91/237
